<?xml version="1.0" standalone="no"?>
<!DOCTYPE svg PUBLIC "-//W3C//DTD SVG 1.0//EN" "http://www.w3.org/TR/2001/REC-SVG-20010904/DTD/svg10.dtd">
<svg xmlns="http://www.w3.org/2000/svg" xmlns:xlink="http://www.w3.org/1999/xlink" id="body_1" width="22" height="22">

<g transform="matrix(0.018333334 0 0 0.018333334 0 0)">
    <path d="M1023.542 297.679L1137.8049 297.679L1137.8049 425.078C 1133.429 425.078 1125.329 424.643 1113.506 423.766C 1101.687 422.893 1090.525 422.452 1080.015 422.452L1080.015 422.452L1023.541 422.452L1023.541 666.746C 1023.541 725.415 1042.802 754.745 1081.3301 754.745C 1108.4761 754.745 1132.987 747.309 1154.8851 732.42L1154.8851 732.42L1154.8851 863.75696C 1122.4872 881.27594 1083.5201 890.02795 1037.9861 890.02795C 974.0671 890.02795 929.85406 867.264 905.3351 821.735C 886.9491 787.582 877.75006 733.74 877.75006 660.17896L877.75006 660.17896L877.75006 425.078L879.06506 425.078L879.06506 422.451L859.36304 421.142C 847.97906 421.142 833.09503 422.451 814.70905 425.078L814.70905 425.078L814.70905 297.679L879.06506 297.679L879.06506 246.456C 879.06506 221.937 877.75006 202.236 875.12604 187.351L875.12604 187.351L1027.48 187.351C 1024.8569 203.989 1023.542 222.815 1023.542 243.82599L1023.542 243.82599L1023.542 297.679zM603.352 880.833C 605.102 863.328 605.972 833.56 605.972 791.525L605.972 791.525L605.972 383.047C 605.972 341.899 605.102 313.438 603.352 297.67902L603.352 297.67902L751.768 297.67902C 750.013 314.31802 749.137 341.89902 749.137 380.427L749.137 380.427L749.137 783.64197C 749.137 828.30194 750.013 860.699 751.768 880.83295L751.768 880.83295L603.352 880.83295zM273.631 291.138C 214.09001 291.138 162.87701 310.841 119.96901 350.244C 75.31801 392.275 52.95201 444.815 52.95201 507.861C 52.95201 549.89197 65.27501 589.22797 89.793015 626.001C 111.683014 660.147 136.626 682.069 164.647 691.699L164.647 691.699L164.647 694.336C 136.626 706.583 122.606 737.22 122.606 786.255C 122.606 823.91003 137.444 851.95 167.21 870.33704L167.21 870.33704L167.21 872.97406C 85.784004 900.1141 45.115005 950.4501 45.115005 1023.999C 45.115005 1087.925 72.26601 1134.781 126.560005 1164.551C 169.457 1188.196 224.14801 1200 290.696 1200C 452.68103 1200 533.713 1132.114 533.713 996.38696C 533.713 911.454 471.066 859.347 345.84802 840.08795C 316.95303 835.71295 295.10803 825.2349 280.22302 808.59393C 268.83902 797.2149 263.15802 785.8469 263.15802 774.46295C 263.15802 742.06696 280.65503 723.24994 315.67303 717.9929C 369.08502 710.1209 412.62402 685.3139 446.33704 643.7249C 480.04703 602.1319 496.94702 553.3539 496.94702 497.3139C 496.94702 479.8009 493.403 460.97992 486.40002 440.8439C 509.16904 435.5849 526.653 430.78992 538.91504 426.41492L538.91504 426.41492L538.91504 291.138C 483.74506 312.154 435.19003 322.632 393.16302 322.632C 356.38303 301.61798 316.53503 291.138 273.63104 291.138zM278.90402 411.914C 305.174 411.914 325.76202 422.026 340.64703 442.163C 352.90503 460.556 359.03104 482.469 359.03104 507.861C 359.03104 569.152 332.31705 599.77997 278.90405 599.77997C 223.74506 599.77997 196.14005 569.52594 196.14005 509.10596C 196.14105 444.31296 223.74504 411.91394 278.90405 411.91394zM288.06003 946.509C 361.61603 946.509 398.43604 968.86694 398.43604 1013.526C 398.43604 1060.813 364.71103 1084.424 297.28903 1084.424C 220.23804 1084.424 181.71304 1061.6139 181.71304 1016.0889C 181.71204 969.67896 217.13504 946.5089 288.06006 946.5089zM769.191 97.848C 769.191 151.888 728.32196 195.696 677.909 195.696C 627.495 195.696 586.627 151.888 586.627 97.848C 586.627 43.808 627.495 0 677.909 0C 728.322 0 769.191 43.808 769.191 97.848z" stroke="none" fill="#000000" fill-rule="nonzero" fill-opacity="0" />
</g>
</svg>